<svg xmlns="http://www.w3.org/2000/svg" viewBox="0 0 300 300" role="img" aria-labelledby="title desc">
  <title id="title">Dark Moon Ritual featured image</title>
  <desc id="desc">A candlelit dark moon spa altar with water and silk.</desc>
  <defs>
    <linearGradient id="night" x1="20%" y1="0%" x2="80%" y2="100%">
      <stop offset="0%" stop-color="#15121f"/>
      <stop offset="45%" stop-color="#2b1c36"/>
      <stop offset="100%" stop-color="#4f2944"/>
    </linearGradient>
    <radialGradient id="moonGlow" cx="62%" cy="28%" r="42%">
      <stop offset="0%" stop-color="#fff6cf" stop-opacity=".72"/>
      <stop offset="100%" stop-color="#fff6cf" stop-opacity="0"/>
    </radialGradient>
    <filter id="softBlur" x="-20%" y="-20%" width="140%" height="140%">
      <feGaussianBlur stdDeviation="8"/>
    </filter>
  </defs>
  <rect width="300" height="300" fill="url(#night)"/>
  <circle cx="194" cy="88" r="78" fill="url(#moonGlow)"/>
  <circle cx="204" cy="76" r="34" fill="#f4e4b0" opacity=".92"/>
  <circle cx="214" cy="70" r="30" fill="#2b1c36"/>
  <ellipse cx="150" cy="232" rx="132" ry="28" fill="#0f1017" opacity=".55"/>
  <rect x="24" y="214" width="252" height="42" rx="10" fill="#34212e" opacity=".92"/>
  <g>
    <ellipse cx="142" cy="182" rx="62" ry="22" fill="#201723"/>
    <ellipse cx="142" cy="176" rx="58" ry="18" fill="#4f6079"/>
    <ellipse cx="142" cy="173" rx="52" ry="13" fill="#8696b2" opacity=".55"/>
    <path d="M92 176c14 7 31 10 50 10 20 0 38-3 56-10-9 14-27 24-56 24-28 0-42-8-50-24z" fill="#1c1824"/>
  </g>
  <g opacity=".95">
    <rect x="58" y="143" width="18" height="46" rx="5" fill="#f0dec0"/>
    <rect x="61" y="137" width="12" height="8" rx="3" fill="#ead0a0"/>
    <path d="M67 121c8 8 7 17 0 24-7-7-8-16 0-24z" fill="#ffc975"/>
    <path d="M67 129c4 4 4 9 0 13-4-4-4-9 0-13z" fill="#fff2bf"/>
  </g>
  <g opacity=".9">
    <rect x="226" y="154" width="14" height="35" rx="4" fill="#ead8bd"/>
    <path d="M233 142c6 6 6 12 0 18-6-5-7-11 0-18z" fill="#ffbf69"/>
  </g>
  <g fill="#15121f" opacity=".42" filter="url(#softBlur)">
    <circle cx="108" cy="92" r="20"/>
    <circle cx="136" cy="68" r="12"/>
    <circle cx="236" cy="126" r="16"/>
  </g>
  <g fill="none" stroke="#b58aa0" stroke-width="3" stroke-linecap="round" opacity=".45">
    <path d="M36 205c38-18 72-22 104-12"/>
    <path d="M170 190c24-14 50-18 78-10"/>
  </g>
  <g fill="#6e556e" opacity=".7">
    <path d="M244 205c8-16 17-30 28-40-3 19-12 33-28 40z"/>
    <path d="M32 201c13-10 28-15 43-15-11 13-25 19-43 15z"/>
  </g>
</svg>
