<svg xmlns="http://www.w3.org/2000/svg" viewBox="0 0 300 300" role="img" aria-labelledby="title desc">
  <title id="title">The Somatic Lab featured image</title>
  <desc id="desc">A moody spa still life with botanical oils and glassware.</desc>
  <defs>
    <linearGradient id="bg" x1="0%" y1="0%" x2="100%" y2="100%">
      <stop offset="0%" stop-color="#24182d"/>
      <stop offset="55%" stop-color="#4a2e46"/>
      <stop offset="100%" stop-color="#b68a54"/>
    </linearGradient>
    <radialGradient id="glow" cx="55%" cy="40%" r="50%">
      <stop offset="0%" stop-color="#f4d8a0" stop-opacity=".55"/>
      <stop offset="100%" stop-color="#f4d8a0" stop-opacity="0"/>
    </radialGradient>
    <filter id="blur" x="-20%" y="-20%" width="140%" height="140%">
      <feGaussianBlur stdDeviation="10"/>
    </filter>
  </defs>
  <rect width="300" height="300" fill="url(#bg)"/>
  <circle cx="175" cy="120" r="90" fill="url(#glow)"/>
  <ellipse cx="222" cy="78" rx="44" ry="20" fill="#000" opacity=".15" filter="url(#blur)"/>
  <rect x="34" y="202" width="232" height="48" rx="8" fill="#d3c2aa" opacity=".26"/>
  <rect x="34" y="214" width="232" height="10" fill="#f6efe4" opacity=".28"/>
  <g opacity=".96">
    <rect x="82" y="96" width="46" height="104" rx="10" fill="#d9b97c"/>
    <rect x="87" y="104" width="36" height="82" rx="8" fill="#f4e1b6" opacity=".92"/>
    <rect x="96" y="78" width="18" height="26" rx="6" fill="#c3945a"/>
    <circle cx="105" cy="142" r="12" fill="#cab18a" opacity=".3"/>
  </g>
  <g opacity=".92">
    <path d="M166 96h24l14 86c2 13-8 24-22 24s-24-11-22-24z" fill="#f0dfc2"/>
    <path d="M171 96h14l10 72c1 8-5 14-12 14s-13-6-12-14z" fill="#d7b686"/>
    <rect x="169" y="88" width="18" height="12" rx="4" fill="#e9d5b4"/>
  </g>
  <g opacity=".88">
    <circle cx="217" cy="168" r="28" fill="#f3eadf" opacity=".95"/>
    <circle cx="217" cy="168" r="20" fill="#8d6f4f" opacity=".5"/>
    <circle cx="217" cy="168" r="10" fill="#f3d89a" opacity=".45"/>
  </g>
  <g fill="none" stroke="#e8d6b3" stroke-width="2.4" stroke-linecap="round" opacity=".7">
    <path d="M52 190c18-26 28-54 29-84"/>
    <path d="M70 190c15-17 30-30 47-41"/>
    <path d="M235 194c-18-30-28-59-28-89"/>
  </g>
  <g fill="#6d8a67" opacity=".72">
    <path d="M56 174c15-12 31-8 45 5-20 7-35 6-45-5z"/>
    <path d="M194 202c17-10 35-8 49 9-22 5-38 2-49-9z"/>
    <path d="M208 70c13 2 21 10 25 24-15 0-24-8-25-24z"/>
  </g>
</svg>
